<?xml version="1.0" encoding="UTF-8" standalone="no"?>
<!DOCTYPE svg PUBLIC "-//W3C//DTD SVG 1.1//EN" "http://www.w3.org/Graphics/SVG/1.1/DTD/svg11.dtd">
<svg xmlns="http://www.w3.org/2000/svg" version="1.1" viewBox="0 0 256 256">
<circle fill="#ffffff" cx="110.43" cy="43.81" r="16.92"/>
<path fill="#ffffff" d="
  M 127.57 91.62
  C 148.43 77.82 169.58 64.39 189.89 49.68
  C 198.91 43.15 219.83 44.71 231.01 44.92
  Q 236.60 45.03 239.76 46.49
  C 246.36 49.53 249.98 55.34 249.99 62.70
  Q 250.03 80.61 249.98 98.52
  C 249.95 109.43 242.29 115.99 231.71 116.00
  C 223.40 116.00 213.58 114.32 206.35 119.13
  Q 197.45 125.06 188.43 130.80
  C 186.09 132.29 184.44 134.30 182.23 135.80
  Q 128.52 172.42 73.79 207.52
  C 68.15 211.14 61.49 213.95 55.49 213.97
  Q 39.64 214.03 23.78 214.00
  C 13.21 213.97 6.01 206.81 6.01 196.23
  Q 6.00 180.88 5.99 165.52
  C 5.98 155.28 13.73 147.94 23.87 147.99
  Q 32.70 148.03 41.51 147.99
  Q 41.90 147.98 42.23 147.77
  L 93.57 114.02
  Q 94.01 113.73 94.01 113.20
  Q 93.96 96.42 94.04 79.75
  C 94.08 70.01 97.46 65.86 106.32 62.65
  C 113.01 60.23 122.08 64.61 125.29 70.64
  C 128.00 75.73 127.07 85.00 126.97 91.29
  A 0.39 0.39 0.0 0 0 127.57 91.62
  Z
  M 231.79 63.22
  C 228.40 60.94 210.71 61.66 206.42 62.71
  C 195.43 65.37 185.73 75.15 176.53 81.21
  Q 116.90 120.48 57.28 159.77
  C 47.72 166.07 37.48 164.99 26.99 165.19
  Q 23.00 165.27 22.98 169.25
  Q 22.94 182.10 23.04 195.01
  Q 23.05 196.26 24.28 196.51
  Q 26.33 196.93 29.26 196.95
  Q 42.56 197.03 55.91 196.99
  Q 56.41 196.99 56.84 196.72
  Q 118.91 156.87 180.00 115.55
  C 187.57 110.43 194.29 103.34 203.42 100.49
  C 211.79 97.88 222.70 99.01 231.29 99.00
  A 1.62 1.62 0.0 0 0 232.90 97.40
  Q 233.10 81.38 233.09 65.94
  Q 233.09 64.09 231.79 63.22
  Z"
/>
</svg>
