<?xml version="1.0" encoding="UTF-8" standalone="no"?>
<!DOCTYPE svg PUBLIC "-//W3C//DTD SVG 1.1//EN" "http://www.w3.org/Graphics/SVG/1.1/DTD/svg11.dtd">
<svg xmlns="http://www.w3.org/2000/svg" version="1.1" viewBox="0 0 409 462">
<g stroke-width="2.00" fill="none" stroke-linecap="butt">
<path stroke="#999999" vector-effect="non-scaling-stroke" d="
  M 79.28 73.65
  C 32.09 118.76 12.16 186.71 28.79 250.24
  C 42.57 302.87 77.83 345.17 126.62 369.33
  Q 130.31 371.16 133.23 373.61
  Q 168.38 403.07 203.86 432.92
  A 0.98 0.98 0.0 0 0 205.12 432.92
  Q 240.41 403.28 275.78 373.57
  Q 278.68 371.14 282.32 369.35
  Q 334.14 343.84 362.04 295.24
  C 399.99 229.11 392.16 144.00 341.72 86.29
  C 273.30 7.99 155.12 1.14 79.28 73.65"
/>
<path stroke="#999999" vector-effect="non-scaling-stroke" d="
  M 204.31 120.83
  A 16.89 16.89 0.0 0 0 187.42 103.94
  A 16.89 16.89 0.0 0 0 170.53 120.83
  A 16.89 16.89 0.0 0 0 187.42 137.72
  A 16.89 16.89 0.0 0 0 204.31 120.83"
/>
<path stroke="#999999" vector-effect="non-scaling-stroke" d="
  M 204.57 168.61
  A 0.38 0.38 0.0 0 1 203.98 168.29
  C 204.14 155.64 206.28 143.01 190.32 139.27
  C 183.67 137.71 174.93 142.40 172.21 148.54
  Q 171.04 151.18 171.04 156.32
  Q 171.03 173.25 170.98 190.25
  Q 170.98 190.74 170.56 191.02
  L 119.40 224.67
  Q 118.95 224.96 118.41 224.97
  Q 109.34 225.07 100.27 225.00
  C 90.94 224.93 82.97 232.63 82.99 242.01
  Q 83.01 257.71 83.00 273.44
  C 82.98 283.22 90.14 290.89 100.04 290.97
  Q 114.79 291.10 129.51 290.93
  C 136.14 290.86 142.83 289.60 147.91 286.39
  Q 192.23 258.43 257.97 213.71
  C 261.14 211.55 263.57 208.81 266.86 206.80
  Q 275.25 201.69 283.38 196.16
  C 290.58 191.26 301.49 192.99 309.87 193.01
  C 319.85 193.02 327.02 185.20 327.01 175.40
  Q 326.97 157.09 327.03 138.74
  C 327.05 130.64 319.16 122.02 310.90 122.00
  Q 298.00 121.98 285.10 122.02
  C 280.72 122.04 272.07 123.31 268.38 125.69
  C 264.74 128.04 260.94 131.41 257.99 133.36
  Q 231.23 151.03 204.57 168.61"
/>
<path stroke="#999999" vector-effect="non-scaling-stroke" d="
  M 101.15 273.33
  Q 103.17 273.96 105.26 273.99
  Q 119.12 274.19 133.09 273.88
  Q 133.60 273.87 134.03 273.59
  Q 194.84 234.51 254.77 194.07
  C 261.09 189.81 269.50 182.11 276.72 178.71
  C 285.64 174.51 299.07 176.13 308.88 175.86
  Q 309.43 175.84 309.57 175.31
  Q 309.99 173.82 310.00 172.25
  Q 310.04 158.46 309.97 144.68
  C 309.96 141.41 309.44 139.12 305.74 139.09
  C 296.04 139.02 283.67 137.31 275.01 142.98
  Q 268.83 147.03 262.80 151.29
  C 261.95 151.89 261.41 153.09 260.33 153.80
  Q 198.70 194.33 137.10 234.90
  C 135.41 236.01 131.51 239.31 129.27 239.79
  Q 126.24 240.44 123.25 241.21
  C 117.73 242.63 111.51 241.98 105.85 242.02
  C 102.10 242.05 100.01 242.60 100.00 246.75
  Q 99.98 259.23 100.01 271.80
  A 1.62 1.62 0.0 0 0 101.15 273.33"
/>
</g>
<path fill="#ffffff" d="
  M 16.33 133.49
  C 47.10 51.55 129.55 -2.72 217.48 3.49
  C 272.57 7.38 322.00 32.53 357.85 74.32
  C 421.50 148.52 421.70 258.24 359.85 333.33
  Q 332.68 366.32 293.52 386.17
  Q 289.65 388.13 286.59 390.70
  Q 245.61 424.90 204.89 459.16
  A 0.64 0.64 0.0 0 1 204.07 459.16
  Q 163.23 424.78 122.36 390.65
  Q 119.35 388.14 115.54 386.22
  C 22.11 339.22 -20.39 231.25 16.33 133.49
  Z
  M 79.28 73.65
  C 32.09 118.76 12.16 186.71 28.79 250.24
  C 42.57 302.87 77.83 345.17 126.62 369.33
  Q 130.31 371.16 133.23 373.61
  Q 168.38 403.07 203.86 432.92
  A 0.98 0.98 0.0 0 0 205.12 432.92
  Q 240.41 403.28 275.78 373.57
  Q 278.68 371.14 282.32 369.35
  Q 334.14 343.84 362.04 295.24
  C 399.99 229.11 392.16 144.00 341.72 86.29
  C 273.30 7.99 155.12 1.14 79.28 73.65
  Z"
/>
<path fill="#333333" d="
  M 28.79 250.24
  C 12.16 186.71 32.09 118.76 79.28 73.65
  C 155.12 1.14 273.30 7.99 341.72 86.29
  C 392.16 144.00 399.99 229.11 362.04 295.24
  Q 334.14 343.84 282.32 369.35
  Q 278.68 371.14 275.78 373.57
  Q 240.41 403.28 205.12 432.92
  A 0.98 0.98 0.0 0 1 203.86 432.92
  Q 168.38 403.07 133.23 373.61
  Q 130.31 371.16 126.62 369.33
  C 77.83 345.17 42.57 302.87 28.79 250.24
  Z
  M 204.31 120.83
  A 16.89 16.89 0.0 0 0 187.42 103.94
  A 16.89 16.89 0.0 0 0 170.53 120.83
  A 16.89 16.89 0.0 0 0 187.42 137.72
  A 16.89 16.89 0.0 0 0 204.31 120.83
  Z
  M 204.57 168.61
  A 0.38 0.38 0.0 0 1 203.98 168.29
  C 204.14 155.64 206.28 143.01 190.32 139.27
  C 183.67 137.71 174.93 142.40 172.21 148.54
  Q 171.04 151.18 171.04 156.32
  Q 171.03 173.25 170.98 190.25
  Q 170.98 190.74 170.56 191.02
  L 119.40 224.67
  Q 118.95 224.96 118.41 224.97
  Q 109.34 225.07 100.27 225.00
  C 90.94 224.93 82.97 232.63 82.99 242.01
  Q 83.01 257.71 83.00 273.44
  C 82.98 283.22 90.14 290.89 100.04 290.97
  Q 114.79 291.10 129.51 290.93
  C 136.14 290.86 142.83 289.60 147.91 286.39
  Q 192.23 258.43 257.97 213.71
  C 261.14 211.55 263.57 208.81 266.86 206.80
  Q 275.25 201.69 283.38 196.16
  C 290.58 191.26 301.49 192.99 309.87 193.01
  C 319.85 193.02 327.02 185.20 327.01 175.40
  Q 326.97 157.09 327.03 138.74
  C 327.05 130.64 319.16 122.02 310.90 122.00
  Q 298.00 121.98 285.10 122.02
  C 280.72 122.04 272.07 123.31 268.38 125.69
  C 264.74 128.04 260.94 131.41 257.99 133.36
  Q 231.23 151.03 204.57 168.61
  Z"
/>
<circle fill="#ffffff" cx="187.42" cy="120.83" r="16.89"/>
<path fill="#ffffff" d="
  M 204.57 168.61
  Q 231.23 151.03 257.99 133.36
  C 260.94 131.41 264.74 128.04 268.38 125.69
  C 272.07 123.31 280.72 122.04 285.10 122.02
  Q 298.00 121.98 310.90 122.00
  C 319.16 122.02 327.05 130.64 327.03 138.74
  Q 326.97 157.09 327.01 175.40
  C 327.02 185.20 319.85 193.02 309.87 193.01
  C 301.49 192.99 290.58 191.26 283.38 196.16
  Q 275.25 201.69 266.86 206.80
  C 263.57 208.81 261.14 211.55 257.97 213.71
  Q 192.23 258.43 147.91 286.39
  C 142.83 289.60 136.14 290.86 129.51 290.93
  Q 114.79 291.10 100.04 290.97
  C 90.14 290.89 82.98 283.22 83.00 273.44
  Q 83.01 257.71 82.99 242.01
  C 82.97 232.63 90.94 224.93 100.27 225.00
  Q 109.34 225.07 118.41 224.97
  Q 118.95 224.96 119.40 224.67
  L 170.56 191.02
  Q 170.98 190.74 170.98 190.25
  Q 171.03 173.25 171.04 156.32
  Q 171.04 151.18 172.21 148.54
  C 174.93 142.40 183.67 137.71 190.32 139.27
  C 206.28 143.01 204.14 155.64 203.98 168.29
  A 0.38 0.38 0.0 0 0 204.57 168.61
  Z
  M 101.15 273.33
  Q 103.17 273.96 105.26 273.99
  Q 119.12 274.19 133.09 273.88
  Q 133.60 273.87 134.03 273.59
  Q 194.84 234.51 254.77 194.07
  C 261.09 189.81 269.50 182.11 276.72 178.71
  C 285.64 174.51 299.07 176.13 308.88 175.86
  Q 309.43 175.84 309.57 175.31
  Q 309.99 173.82 310.00 172.25
  Q 310.04 158.46 309.97 144.68
  C 309.96 141.41 309.44 139.12 305.74 139.09
  C 296.04 139.02 283.67 137.31 275.01 142.98
  Q 268.83 147.03 262.80 151.29
  C 261.95 151.89 261.41 153.09 260.33 153.80
  Q 198.70 194.33 137.10 234.90
  C 135.41 236.01 131.51 239.31 129.27 239.79
  Q 126.24 240.44 123.25 241.21
  C 117.73 242.63 111.51 241.98 105.85 242.02
  C 102.10 242.05 100.01 242.60 100.00 246.75
  Q 99.98 259.23 100.01 271.80
  A 1.62 1.62 0.0 0 0 101.15 273.33
  Z"
/>
<path fill="#333333" d="
  M 101.15 273.33
  A 1.62 1.62 0.0 0 1 100.01 271.80
  Q 99.98 259.23 100.00 246.75
  C 100.01 242.60 102.10 242.05 105.85 242.02
  C 111.51 241.98 117.73 242.63 123.25 241.21
  Q 126.24 240.44 129.27 239.79
  C 131.51 239.31 135.41 236.01 137.10 234.90
  Q 198.70 194.33 260.33 153.80
  C 261.41 153.09 261.95 151.89 262.80 151.29
  Q 268.83 147.03 275.01 142.98
  C 283.67 137.31 296.04 139.02 305.74 139.09
  C 309.44 139.12 309.96 141.41 309.97 144.68
  Q 310.04 158.46 310.00 172.25
  Q 309.99 173.82 309.57 175.31
  Q 309.43 175.84 308.88 175.86
  C 299.07 176.13 285.64 174.51 276.72 178.71
  C 269.50 182.11 261.09 189.81 254.77 194.07
  Q 194.84 234.51 134.03 273.59
  Q 133.60 273.87 133.09 273.88
  Q 119.12 274.19 105.26 273.99
  Q 103.17 273.96 101.15 273.33
  Z"
/>
</svg>
