<?xml version="1.0" encoding="UTF-8" standalone="no"?>
<!DOCTYPE svg PUBLIC "-//W3C//DTD SVG 1.1//EN" "http://www.w3.org/Graphics/SVG/1.1/DTD/svg11.dtd">
<svg xmlns="http://www.w3.org/2000/svg" version="1.1" viewBox="0 0 256 256">
<g stroke-width="2.00" fill="none" stroke-linecap="butt">
<path stroke="#8c8c8c" vector-effect="non-scaling-stroke" d="
  M 126.82 43.83
  A 16.35 16.35 0.0 0 0 110.47 27.48
  A 16.35 16.35 0.0 0 0 94.12 43.83
  A 16.35 16.35 0.0 0 0 110.47 60.18
  A 16.35 16.35 0.0 0 0 126.82 43.83"
/>
<path stroke="#8c8c8c" vector-effect="non-scaling-stroke" d="
  M 126.77 88.69
  C 126.78 81.37 127.82 73.03 122.23 67.46
  C 114.46 59.72 99.88 61.80 95.55 72.16
  Q 94.24 75.28 94.25 82.51
  Q 94.27 101.49 94.24 120.42
  Q 94.24 120.92 93.88 121.28
  Q 78.66 136.40 63.53 151.61
  C 61.41 153.74 59.62 154.51 56.75 154.51
  C 47.83 154.48 35.58 153.27 27.58 155.80
  C 18.55 158.64 11.38 166.31 8.29 175.10
  C 1.95 193.13 14.07 216.21 34.06 217.67
  Q 41.75 218.24 70.26 218.05
  Q 86.45 217.94 97.06 207.31
  Q 145.50 158.75 194.31 110.56
  Q 196.27 108.63 198.50 108.56
  Q 204.84 108.37 223.64 108.21
  C 244.75 108.04 257.80 82.44 249.80 64.24
  C 244.27 51.64 233.58 45.18 220.03 45.21
  Q 203.88 45.26 187.74 45.28
  C 175.68 45.29 168.07 48.04 159.29 56.71
  Q 143.09 72.68 127.07 88.81
  A 0.18 0.17 -22.8 0 1 126.77 88.69"
/>
<path stroke="#8c8c8c" vector-effect="non-scaling-stroke" d="
  M 229.08 63.66
  Q 226.17 61.30 222.75 61.26
  Q 211.50 61.16 183.31 61.45
  Q 176.86 61.52 173.19 65.19
  Q 123.13 115.25 73.01 165.26
  Q 67.47 170.79 61.26 170.76
  Q 50.48 170.72 39.70 170.77
  Q 34.15 170.79 31.54 171.73
  C 17.96 176.62 20.20 195.46 32.43 200.56
  Q 35.39 201.80 40.25 201.78
  Q 56.84 201.74 73.44 201.72
  C 78.94 201.71 83.70 198.52 87.91 194.32
  Q 135.66 146.69 183.36 99.02
  C 187.52 94.87 191.27 92.33 196.81 92.30
  Q 207.98 92.25 219.16 92.22
  C 225.55 92.20 230.18 90.89 233.23 85.45
  Q 240.31 72.79 229.08 63.66"
/>
</g>
<path fill="#191919" d="
  M 0.00 0.00
  L 256.00 0.00
  L 256.00 256.00
  L 0.00 256.00
  L 0.00 0.00
  Z
  M 126.82 43.83
  A 16.35 16.35 0.0 0 0 110.47 27.48
  A 16.35 16.35 0.0 0 0 94.12 43.83
  A 16.35 16.35 0.0 0 0 110.47 60.18
  A 16.35 16.35 0.0 0 0 126.82 43.83
  Z
  M 126.77 88.69
  C 126.78 81.37 127.82 73.03 122.23 67.46
  C 114.46 59.72 99.88 61.80 95.55 72.16
  Q 94.24 75.28 94.25 82.51
  Q 94.27 101.49 94.24 120.42
  Q 94.24 120.92 93.88 121.28
  Q 78.66 136.40 63.53 151.61
  C 61.41 153.74 59.62 154.51 56.75 154.51
  C 47.83 154.48 35.58 153.27 27.58 155.80
  C 18.55 158.64 11.38 166.31 8.29 175.10
  C 1.95 193.13 14.07 216.21 34.06 217.67
  Q 41.75 218.24 70.26 218.05
  Q 86.45 217.94 97.06 207.31
  Q 145.50 158.75 194.31 110.56
  Q 196.27 108.63 198.50 108.56
  Q 204.84 108.37 223.64 108.21
  C 244.75 108.04 257.80 82.44 249.80 64.24
  C 244.27 51.64 233.58 45.18 220.03 45.21
  Q 203.88 45.26 187.74 45.28
  C 175.68 45.29 168.07 48.04 159.29 56.71
  Q 143.09 72.68 127.07 88.81
  A 0.18 0.17 -22.8 0 1 126.77 88.69
  Z"
/>
<circle fill="#ffffff" cx="110.47" cy="43.83" r="16.35"/>
<path fill="#ffffff" d="
  M 126.77 88.69
  A 0.18 0.17 -22.8 0 0 127.07 88.81
  Q 143.09 72.68 159.29 56.71
  C 168.07 48.04 175.68 45.29 187.74 45.28
  Q 203.88 45.26 220.03 45.21
  C 233.58 45.18 244.27 51.64 249.80 64.24
  C 257.80 82.44 244.75 108.04 223.64 108.21
  Q 204.84 108.37 198.50 108.56
  Q 196.27 108.63 194.31 110.56
  Q 145.50 158.75 97.06 207.31
  Q 86.45 217.94 70.26 218.05
  Q 41.75 218.24 34.06 217.67
  C 14.07 216.21 1.95 193.13 8.29 175.10
  C 11.38 166.31 18.55 158.64 27.58 155.80
  C 35.58 153.27 47.83 154.48 56.75 154.51
  C 59.62 154.51 61.41 153.74 63.53 151.61
  Q 78.66 136.40 93.88 121.28
  Q 94.24 120.92 94.24 120.42
  Q 94.27 101.49 94.25 82.51
  Q 94.24 75.28 95.55 72.16
  C 99.88 61.80 114.46 59.72 122.23 67.46
  C 127.82 73.03 126.78 81.37 126.77 88.69
  Z
  M 229.08 63.66
  Q 226.17 61.30 222.75 61.26
  Q 211.50 61.16 183.31 61.45
  Q 176.86 61.52 173.19 65.19
  Q 123.13 115.25 73.01 165.26
  Q 67.47 170.79 61.26 170.76
  Q 50.48 170.72 39.70 170.77
  Q 34.15 170.79 31.54 171.73
  C 17.96 176.62 20.20 195.46 32.43 200.56
  Q 35.39 201.80 40.25 201.78
  Q 56.84 201.74 73.44 201.72
  C 78.94 201.71 83.70 198.52 87.91 194.32
  Q 135.66 146.69 183.36 99.02
  C 187.52 94.87 191.27 92.33 196.81 92.30
  Q 207.98 92.25 219.16 92.22
  C 225.55 92.20 230.18 90.89 233.23 85.45
  Q 240.31 72.79 229.08 63.66
  Z"
/>
<path fill="#191919" d="
  M 229.08 63.66
  Q 240.31 72.79 233.23 85.45
  C 230.18 90.89 225.55 92.20 219.16 92.22
  Q 207.98 92.25 196.81 92.30
  C 191.27 92.33 187.52 94.87 183.36 99.02
  Q 135.66 146.69 87.91 194.32
  C 83.70 198.52 78.94 201.71 73.44 201.72
  Q 56.84 201.74 40.25 201.78
  Q 35.39 201.80 32.43 200.56
  C 20.20 195.46 17.96 176.62 31.54 171.73
  Q 34.15 170.79 39.70 170.77
  Q 50.48 170.72 61.26 170.76
  Q 67.47 170.79 73.01 165.26
  Q 123.13 115.25 173.19 65.19
  Q 176.86 61.52 183.31 61.45
  Q 211.50 61.16 222.75 61.26
  Q 226.17 61.30 229.08 63.66
  Z"
/>
</svg>
