<?xml version="1.0" encoding="UTF-8" standalone="no"?>
<!DOCTYPE svg PUBLIC "-//W3C//DTD SVG 1.1//EN" "http://www.w3.org/Graphics/SVG/1.1/DTD/svg11.dtd">
<svg xmlns="http://www.w3.org/2000/svg" version="1.1" viewBox="0 0 256 256">
<ellipse fill="#000000" cx="0.00" cy="0.00" transform="translate(110.40,43.87) rotate(91.1)" rx="15.56" ry="15.35"/>
<path fill="#000000" d="
  M 104.70 198.70
  C 93.67 209.64 86.17 216.96 69.77 216.98
  Q 53.60 217.01 37.42 217.00
  C 21.28 216.99 9.81 204.68 7.51 189.47
  C 5.76 177.89 12.60 165.17 22.17 159.10
  C 31.46 153.20 48.43 155.00 59.00 155.01
  C 60.66 155.01 62.34 154.05 63.62 152.77
  Q 78.88 137.44 94.27 122.17
  A 2.50 2.49 67.8 0 0 95.00 120.43
  Q 95.01 101.24 95.00 81.60
  C 94.99 75.16 96.86 68.20 103.42 65.40
  C 106.93 63.90 109.55 62.68 113.42 63.87
  C 118.57 65.45 122.59 67.12 124.38 72.55
  Q 126.60 79.27 125.90 86.51
  A 1.56 1.56 0.0 0 0 127.51 88.22
  C 129.45 88.15 130.57 86.85 131.91 85.49
  Q 148.34 68.88 165.04 52.54
  C 170.03 47.66 184.73 45.06 191.77 45.02
  C 212.59 44.93 238.11 40.70 248.98 64.30
  Q 250.03 66.57 251.47 74.75
  C 251.90 77.22 251.15 79.33 250.78 81.78
  C 249.10 92.77 240.79 102.78 230.06 106.50
  C 221.88 109.33 208.04 108.08 198.63 107.99
  C 195.89 107.97 194.14 109.32 192.36 111.11
  Q 148.69 155.06 104.70 198.70
  Z
  M 182.31 101.06
  C 189.31 94.07 193.71 92.93 204.18 92.99
  C 211.22 93.03 222.03 94.12 227.78 91.48
  C 236.04 87.67 239.40 76.31 234.66 68.39
  C 232.58 64.91 228.85 60.99 224.74 61.00
  Q 204.13 61.02 183.49 60.98
  C 175.97 60.97 173.49 63.96 168.71 68.76
  Q 122.87 114.75 76.82 160.54
  Q 72.06 165.27 69.60 166.81
  C 62.08 171.49 50.92 170.12 38.93 170.01
  C 31.64 169.94 26.62 171.70 23.16 177.93
  C 21.17 181.52 21.57 189.93 23.20 193.42
  C 25.87 199.15 30.66 201.94 37.12 201.97
  Q 56.49 202.04 75.87 201.98
  C 79.73 201.97 84.28 199.09 86.99 196.37
  Q 134.66 148.73 182.31 101.06
  Z"
/>
</svg>
