<?xml version="1.0" encoding="UTF-8" standalone="no"?>
<!DOCTYPE svg PUBLIC "-//W3C//DTD SVG 1.1//EN" "http://www.w3.org/Graphics/SVG/1.1/DTD/svg11.dtd">
<svg xmlns="http://www.w3.org/2000/svg" version="1.1" viewBox="0 0 256 512">
<path fill="#191919" d="
  M 0.00 0.00
  L 256.00 0.00
  L 256.00 293.56
  Q 255.37 300.19 256.00 306.81
  L 256.00 329.56
  L 255.62 342.72
  Q 255.61 343.14 255.20 343.05
  C 254.90 342.98 254.71 342.48 254.72 342.16
  C 254.98 334.20 255.69 326.37 248.73 321.56
  Q 239.03 314.85 229.04 321.07
  Q 222.04 325.43 222.02 333.26
  Q 221.97 354.46 222.01 375.78
  Q 222.01 376.29 221.66 376.64
  C 217.30 381.08 190.13 410.06 186.50 410.03
  C 176.85 409.94 162.57 408.59 154.22 411.66
  Q 146.25 414.59 140.71 422.21
  Q 130.21 436.66 135.98 453.24
  C 139.74 464.06 150.72 474.09 162.96 474.05
  Q 182.55 473.97 202.15 473.99
  C 211.53 473.99 220.08 469.07 226.62 462.62
  Q 240.90 448.55 255.03 434.30
  Q 255.45 433.88 255.71 434.42
  L 256.00 435.06
  L 256.00 512.00
  L 0.00 512.00
  L 0.00 434.44
  C 0.56 433.49 0.84 432.54 1.62 431.76
  Q 33.52 399.85 65.43 367.96
  C 66.56 366.83 69.02 365.01 70.25 365.01
  Q 81.95 364.98 93.65 365.01
  Q 98.89 365.02 101.76 364.21
  C 113.34 360.95 124.10 347.39 124.89 335.19
  C 125.89 319.82 115.92 305.03 100.42 301.00
  Q 96.66 300.02 89.49 300.00
  Q 75.37 299.94 61.26 300.05
  C 50.73 300.14 41.14 302.63 33.54 310.14
  Q 17.19 326.29 1.02 342.61
  Q 0.67 342.96 0.38 342.56
  Q 0.07 342.12 0.00 341.44
  L 0.00 0.00
  Z
  M 127.34 43.83
  A 16.92 16.92 0.0 0 0 110.42 26.91
  A 16.92 16.92 0.0 0 0 93.50 43.83
  A 16.92 16.92 0.0 0 0 110.42 60.75
  A 16.92 16.92 0.0 0 0 127.34 43.83
  Z
  M 127.04 86.54
  C 126.80 76.63 128.26 68.75 117.54 63.72
  C 107.59 59.05 94.04 65.54 94.01 77.27
  Q 93.97 98.46 94.01 119.79
  Q 94.01 120.29 93.66 120.65
  Q 78.31 136.27 62.70 151.64
  C 61.60 152.72 59.54 154.06 58.26 154.05
  C 38.10 153.76 18.18 150.47 8.47 173.35
  C 1.51 189.74 9.30 208.38 25.23 216.14
  Q 28.97 217.97 31.06 217.97
  Q 52.56 218.03 74.06 217.99
  C 82.90 217.97 92.06 213.29 98.05 207.30
  Q 145.75 159.64 193.43 111.95
  C 194.53 110.85 197.07 108.99 198.25 108.99
  Q 210.74 109.02 223.24 108.99
  C 231.75 108.97 237.57 105.34 243.28 99.34
  C 264.57 76.91 248.42 43.92 218.18 43.96
  Q 203.75 43.98 189.33 44.06
  C 178.99 44.11 169.10 46.59 161.67 54.00
  Q 146.40 69.21 131.16 84.40
  Q 129.37 86.18 127.95 87.04
  Q 127.07 87.58 127.04 86.54
  Z
  M 238.4692 316.8698
  A 17.04 16.77 89.7 0 0 255.1498 299.7422
  A 17.04 16.77 89.7 0 0 238.2908 282.7902
  A 17.04 16.77 89.7 0 0 221.6102 299.9178
  A 17.04 16.77 89.7 0 0 238.4692 316.8698
  Z"
/>
<path fill="#191919" d="
  M 86.81 194.56
  C 81.85 199.47 78.12 200.96 70.72 200.97
  Q 54.46 200.98 38.06 201.06
  C 18.62 201.14 16.62 171.34 38.75 171.06
  Q 49.08 170.94 59.42 171.00
  C 65.27 171.03 70.18 169.16 74.05 165.30
  Q 124.02 115.39 173.93 65.43
  C 175.69 63.67 179.46 62.01 182.40 62.01
  Q 201.68 62.02 220.97 61.97
  C 237.65 61.93 240.51 84.87 226.33 90.61
  C 213.60 95.76 195.07 86.40 184.40 97.15
  Q 135.81 146.06 86.81 194.56
  Z"
/>
<path fill="#191919" d="
  M 0.00 407.44
  L -0.27 368.18
  Q 29.55 337.14 45.81 321.56
  C 47.82 319.64 51.31 318.01 54.46 318.01
  Q 73.71 318.02 92.97 317.97
  C 109.54 317.92 112.53 340.65 98.50 346.54
  Q 95.02 348.00 86.85 348.00
  Q 77.34 348.01 67.85 347.99
  C 64.12 347.99 59.11 350.53 56.95 352.70
  Q 28.92 380.71 0.89 408.70
  Q 0.49 409.10 0.33 408.56
  L 0.00 407.44
  Z"
/>
<path fill="#191919" d="
  M 255.55 368.56
  Q 256.34 389.56 256.00 409.31
  Q 224.21 442.12 212.34 453.10
  C 209.62 455.61 204.07 456.99 199.88 456.98
  Q 182.93 456.96 165.97 457.06
  C 146.70 457.16 144.59 427.33 166.75 427.06
  Q 177.08 426.94 187.42 427.00
  C 193.23 427.03 198.23 425.16 202.04 421.29
  Q 228.36 394.50 255.55 368.56
  Z"
/>
</svg>
