<?xml version="1.0" encoding="UTF-8" standalone="no"?>
<!DOCTYPE svg PUBLIC "-//W3C//DTD SVG 1.1//EN" "http://www.w3.org/Graphics/SVG/1.1/DTD/svg11.dtd">
<svg xmlns="http://www.w3.org/2000/svg" version="1.1" viewBox="0 0 256 256">
<ellipse fill="#ffffff" cx="0.00" cy="0.00" transform="translate(110.43,43.85) rotate(90.8)" rx="16.73" ry="16.65"/>
<path fill="#ffffff" d="
  M 126.82 86.68
  A 1.00 1.00 0.0 0 0 128.52 87.34
  L 163.97 51.92
  Q 164.32 51.56 164.80 51.40
  C 166.35 50.90 166.93 49.73 168.26 49.11
  C 175.52 45.71 181.92 44.32 190.48 44.27
  Q 203.77 44.18 217.06 44.28
  Q 225.56 44.35 230.12 45.79
  C 257.33 54.39 259.46 88.72 237.49 104.25
  C 227.98 110.97 210.79 108.86 199.55 108.72
  C 197.82 108.70 195.29 109.84 194.07 111.06
  Q 146.59 158.53 99.12 206.00
  C 94.71 210.42 88.02 214.86 82.06 216.57
  Q 78.14 217.69 70.21 217.74
  Q 51.79 217.85 33.38 217.64
  C 18.56 217.48 7.43 201.61 6.28 188.31
  C 4.92 172.48 16.67 155.53 33.55 154.60
  Q 44.99 153.97 56.43 154.28
  C 59.65 154.37 61.72 153.21 63.83 151.09
  Q 78.83 136.02 93.88 120.99
  Q 94.23 120.64 94.23 120.14
  Q 94.28 100.92 94.24 81.70
  Q 94.23 74.58 95.68 71.52
  C 101.66 58.87 122.07 59.50 126.12 73.43
  C 127.19 77.14 126.62 82.32 126.82 86.68
  Z
  M 162.76 76.58
  Q 119.58 119.32 76.76 162.43
  Q 74.78 164.42 72.66 165.97
  C 69.56 168.23 66.92 170.49 62.79 170.57
  Q 52.42 170.78 42.10 170.79
  Q 34.67 170.80 31.60 171.94
  C 16.31 177.59 21.36 201.33 38.11 201.28
  Q 55.46 201.23 72.79 201.24
  C 76.54 201.24 82.51 199.38 84.69 197.19
  Q 134.14 147.71 183.63 98.27
  C 186.10 95.80 191.35 92.28 194.94 92.27
  C 204.18 92.25 219.11 93.67 226.56 90.68
  C 237.94 86.11 239.19 68.63 227.72 63.03
  Q 225.05 61.73 220.12 61.74
  Q 201.29 61.77 182.47 61.74
  C 174.73 61.73 167.76 71.64 162.76 76.58
  Z"
/>
</svg>
