<?xml version="1.0" encoding="UTF-8" standalone="no"?>
<!DOCTYPE svg PUBLIC "-//W3C//DTD SVG 1.1//EN" "http://www.w3.org/Graphics/SVG/1.1/DTD/svg11.dtd">
<svg xmlns="http://www.w3.org/2000/svg" version="1.1" viewBox="0 0 409 462">
<g stroke-width="2.00" fill="none" stroke-linecap="butt">
<path stroke="#999999" vector-effect="non-scaling-stroke" d="
  M 34.69 141.19
  C 1.18 230.55 41.95 327.54 126.80 369.44
  Q 130.45 371.24 133.33 373.66
  Q 168.60 403.29 204.07 433.08
  A 0.66 0.65 44.6 0 0 204.92 433.08
  Q 240.40 403.29 275.78 373.57
  Q 278.67 371.14 282.32 369.35
  Q 334.14 343.84 362.04 295.24
  C 400.14 228.84 392.07 144.45 341.70 86.32
  Q 301.59 40.03 240.89 27.02
  C 153.52 8.29 65.68 58.54 34.69 141.19"
/>
<path stroke="#999999" vector-effect="non-scaling-stroke" d="
  M 204.05 120.86
  A 16.60 16.60 0.0 0 0 187.45 104.26
  A 16.60 16.60 0.0 0 0 170.85 120.86
  A 16.60 16.60 0.0 0 0 187.45 137.46
  A 16.60 16.60 0.0 0 0 204.05 120.86"
/>
<path stroke="#999999" vector-effect="non-scaling-stroke" d="
  M 205.22 164.21
  A 0.91 0.91 0.0 0 1 203.87 163.45
  C 203.66 159.03 204.32 153.69 202.90 149.91
  C 196.66 133.28 171.34 137.30 171.28 155.76
  Q 171.22 176.37 171.20 197.08
  Q 171.20 197.59 170.85 197.94
  Q 156.41 212.52 141.86 227.02
  C 137.93 230.93 136.13 231.60 130.75 231.50
  C 112.83 231.16 96.78 229.05 86.93 247.84
  C 77.46 265.91 86.86 287.07 105.36 294.01
  C 107.00 294.62 109.90 294.74 111.61 294.74
  Q 128.81 294.77 146.02 294.74
  Q 154.63 294.73 158.75 293.56
  C 166.40 291.41 173.09 285.95 178.68 280.43
  Q 225.36 234.35 271.62 187.87
  Q 272.59 186.89 273.74 186.04
  Q 274.16 185.74 274.68 185.74
  Q 285.29 185.78 295.89 185.73
  C 305.62 185.68 310.66 184.58 317.53 178.55
  C 339.62 159.16 329.24 123.91 299.50 121.48
  Q 288.35 120.56 260.33 121.64
  C 251.74 121.97 243.75 126.14 237.32 132.55
  Q 222.61 147.21 208.01 162.01
  Q 206.55 163.49 205.22 164.21"
/>
<path stroke="#999999" vector-effect="non-scaling-stroke" d="
  M 249.94 143.44
  Q 203.27 190.05 156.56 236.62
  C 150.36 242.80 145.22 247.83 136.25 247.76
  Q 127.41 247.70 118.57 247.56
  C 107.17 247.38 97.61 253.11 99.91 265.56
  C 101.57 274.60 107.72 278.26 116.45 278.26
  Q 131.81 278.26 147.17 278.23
  C 152.85 278.21 158.69 277.28 162.33 273.59
  Q 220.51 214.62 260.50 175.50
  C 263.47 172.59 268.15 169.44 272.69 169.38
  Q 284.48 169.21 296.23 169.23
  C 312.06 169.26 319.04 149.59 305.96 140.61
  Q 303.31 138.79 300.94 138.78
  Q 281.06 138.71 261.18 138.77
  C 255.68 138.78 253.60 139.78 249.94 143.44"
/>
</g>
<path fill="#ffffff" d="
  M 16.33 133.49
  C 47.10 51.55 129.55 -2.72 217.48 3.49
  C 272.57 7.38 322.00 32.53 357.85 74.32
  C 421.50 148.52 421.70 258.24 359.85 333.33
  Q 332.68 366.32 293.52 386.17
  Q 289.65 388.13 286.59 390.70
  Q 245.61 424.90 204.89 459.16
  A 0.64 0.64 0.0 0 1 204.07 459.16
  Q 163.23 424.78 122.36 390.65
  Q 119.35 388.14 115.54 386.22
  C 22.11 339.22 -20.39 231.25 16.33 133.49
  Z
  M 34.69 141.19
  C 1.18 230.55 41.95 327.54 126.80 369.44
  Q 130.45 371.24 133.33 373.66
  Q 168.60 403.29 204.07 433.08
  A 0.66 0.65 44.6 0 0 204.92 433.08
  Q 240.40 403.29 275.78 373.57
  Q 278.67 371.14 282.32 369.35
  Q 334.14 343.84 362.04 295.24
  C 400.14 228.84 392.07 144.45 341.70 86.32
  Q 301.59 40.03 240.89 27.02
  C 153.52 8.29 65.68 58.54 34.69 141.19
  Z"
/>
<path fill="#333333" d="
  M 34.69 141.19
  C 65.68 58.54 153.52 8.29 240.89 27.02
  Q 301.59 40.03 341.70 86.32
  C 392.07 144.45 400.14 228.84 362.04 295.24
  Q 334.14 343.84 282.32 369.35
  Q 278.67 371.14 275.78 373.57
  Q 240.40 403.29 204.92 433.08
  A 0.66 0.65 44.6 0 1 204.07 433.08
  Q 168.60 403.29 133.33 373.66
  Q 130.45 371.24 126.80 369.44
  C 41.95 327.54 1.18 230.55 34.69 141.19
  Z
  M 204.05 120.86
  A 16.60 16.60 0.0 0 0 187.45 104.26
  A 16.60 16.60 0.0 0 0 170.85 120.86
  A 16.60 16.60 0.0 0 0 187.45 137.46
  A 16.60 16.60 0.0 0 0 204.05 120.86
  Z
  M 205.22 164.21
  A 0.91 0.91 0.0 0 1 203.87 163.45
  C 203.66 159.03 204.32 153.69 202.90 149.91
  C 196.66 133.28 171.34 137.30 171.28 155.76
  Q 171.22 176.37 171.20 197.08
  Q 171.20 197.59 170.85 197.94
  Q 156.41 212.52 141.86 227.02
  C 137.93 230.93 136.13 231.60 130.75 231.50
  C 112.83 231.16 96.78 229.05 86.93 247.84
  C 77.46 265.91 86.86 287.07 105.36 294.01
  C 107.00 294.62 109.90 294.74 111.61 294.74
  Q 128.81 294.77 146.02 294.74
  Q 154.63 294.73 158.75 293.56
  C 166.40 291.41 173.09 285.95 178.68 280.43
  Q 225.36 234.35 271.62 187.87
  Q 272.59 186.89 273.74 186.04
  Q 274.16 185.74 274.68 185.74
  Q 285.29 185.78 295.89 185.73
  C 305.62 185.68 310.66 184.58 317.53 178.55
  C 339.62 159.16 329.24 123.91 299.50 121.48
  Q 288.35 120.56 260.33 121.64
  C 251.74 121.97 243.75 126.14 237.32 132.55
  Q 222.61 147.21 208.01 162.01
  Q 206.55 163.49 205.22 164.21
  Z"
/>
<circle fill="#ffffff" cx="187.45" cy="120.86" r="16.60"/>
<path fill="#ffffff" d="
  M 205.22 164.21
  Q 206.55 163.49 208.01 162.01
  Q 222.61 147.21 237.32 132.55
  C 243.75 126.14 251.74 121.97 260.33 121.64
  Q 288.35 120.56 299.50 121.48
  C 329.24 123.91 339.62 159.16 317.53 178.55
  C 310.66 184.58 305.62 185.68 295.89 185.73
  Q 285.29 185.78 274.68 185.74
  Q 274.16 185.74 273.74 186.04
  Q 272.59 186.89 271.62 187.87
  Q 225.36 234.35 178.68 280.43
  C 173.09 285.95 166.40 291.41 158.75 293.56
  Q 154.63 294.73 146.02 294.74
  Q 128.81 294.77 111.61 294.74
  C 109.90 294.74 107.00 294.62 105.36 294.01
  C 86.86 287.07 77.46 265.91 86.93 247.84
  C 96.78 229.05 112.83 231.16 130.75 231.50
  C 136.13 231.60 137.93 230.93 141.86 227.02
  Q 156.41 212.52 170.85 197.94
  Q 171.20 197.59 171.20 197.08
  Q 171.22 176.37 171.28 155.76
  C 171.34 137.30 196.66 133.28 202.90 149.91
  C 204.32 153.69 203.66 159.03 203.87 163.45
  A 0.91 0.91 0.0 0 0 205.22 164.21
  Z
  M 249.94 143.44
  Q 203.27 190.05 156.56 236.62
  C 150.36 242.80 145.22 247.83 136.25 247.76
  Q 127.41 247.70 118.57 247.56
  C 107.17 247.38 97.61 253.11 99.91 265.56
  C 101.57 274.60 107.72 278.26 116.45 278.26
  Q 131.81 278.26 147.17 278.23
  C 152.85 278.21 158.69 277.28 162.33 273.59
  Q 220.51 214.62 260.50 175.50
  C 263.47 172.59 268.15 169.44 272.69 169.38
  Q 284.48 169.21 296.23 169.23
  C 312.06 169.26 319.04 149.59 305.96 140.61
  Q 303.31 138.79 300.94 138.78
  Q 281.06 138.71 261.18 138.77
  C 255.68 138.78 253.60 139.78 249.94 143.44
  Z"
/>
<path fill="#333333" d="
  M 249.94 143.44
  C 253.60 139.78 255.68 138.78 261.18 138.77
  Q 281.06 138.71 300.94 138.78
  Q 303.31 138.79 305.96 140.61
  C 319.04 149.59 312.06 169.26 296.23 169.23
  Q 284.48 169.21 272.69 169.38
  C 268.15 169.44 263.47 172.59 260.50 175.50
  Q 220.51 214.62 162.33 273.59
  C 158.69 277.28 152.85 278.21 147.17 278.23
  Q 131.81 278.26 116.45 278.26
  C 107.72 278.26 101.57 274.60 99.91 265.56
  C 97.61 253.11 107.17 247.38 118.57 247.56
  Q 127.41 247.70 136.25 247.76
  C 145.22 247.83 150.36 242.80 156.56 236.62
  Q 203.27 190.05 249.94 143.44
  Z"
/>
</svg>
